<svg width="56" height="34" viewBox="0 0 56 34" fill="none" xmlns="http://www.w3.org/2000/svg">
<g clip-path="url(#clip0_15_987)">
<path fill-rule="evenodd" clip-rule="evenodd" d="M21.7978 2.21437C19.6598 0.738125 17.1036 0 14.1291 0C11.1545 0 8.59827 0.738125 6.46032 2.21437C4.32238 3.65987 2.71117 5.65895 1.6267 8.21164C0.542233 10.7643 0 13.6861 0 16.9769C0 20.2677 0.542233 23.1894 1.6267 25.7421C2.71117 28.2948 4.32238 30.3092 6.46032 31.7855C8.59827 33.231 11.1545 33.9537 14.1291 33.9537C17.1036 33.9537 19.6598 33.231 21.7978 31.7855C23.9357 30.3092 25.5469 28.2948 26.6314 25.7421C27.7159 23.1894 28.2581 20.2677 28.2581 16.9769C28.2581 13.6861 27.7159 10.7643 26.6314 8.21164C25.5469 5.65895 23.9357 3.65987 21.7978 2.21437ZM18.1551 7.89975C17.1164 6.81596 15.7744 6.27406 14.1291 6.27406C11.9291 6.27406 10.256 7.24285 9.10952 9.18042C7.99407 11.118 7.43635 13.7168 7.43635 16.9769C7.43635 19.0234 7.65614 20.8094 8.09574 22.3348L18.1551 7.89975ZM10.0734 26.0504C11.13 27.1365 12.4819 27.6797 14.1291 27.6797C16.329 27.6797 17.9867 26.7109 19.1021 24.7733C20.2485 22.8357 20.8218 20.2369 20.8218 16.9769C20.8218 14.924 20.5945 13.1335 20.14 11.605L10.0734 26.0504Z" fill="#26272B"/>
<path d="M37.083 20.4829L28.3452 33.2155H36.7111L40.8011 26.0188C41.111 25.5267 41.2969 24.8809 41.3589 24.0812C41.3898 23.7737 41.4518 23.543 41.5448 23.3892C41.6377 23.2047 41.8236 23.1124 42.1025 23.1124C42.5363 23.1124 42.7842 23.3892 42.8461 23.9428V24.0812C42.9081 24.8809 43.094 25.5267 43.4038 26.0188L47.4938 33.2155H55.8597L47.122 20.4829L55.1161 8.85742H46.7502L43.4038 14.9008C43.032 15.5467 42.8461 16.1925 42.8461 16.8384C42.8461 17.1152 42.7841 17.3459 42.6602 17.5304C42.5673 17.7149 42.3813 17.8072 42.1025 17.8072C41.8236 17.8072 41.6222 17.7149 41.4983 17.5304C41.4053 17.3459 41.3589 17.1152 41.3589 16.8384C41.3589 16.1925 41.1729 15.5467 40.8011 14.9008L37.4548 8.85742H29.0889L37.083 20.4829Z" fill="#26272B"/>
</g>
<defs>
<clipPath id="clip0_15_987">
<rect width="56" height="34" fill="white"/>
</clipPath>
</defs>
</svg>
